<svg width="24" height="24" viewBox="0 0 24 24" fill="none" xmlns="http://www.w3.org/2000/svg">
<path fill-rule="evenodd" clip-rule="evenodd" d="M11.0727 0.217976C11.654 -0.0726588 12.3346 -0.0726588 12.9159 0.217976L12.9231 0.221592C13.5694 0.552449 14.1106 1.11446 14.488 1.72488C14.8652 2.33485 15.1273 3.07135 15.1273 3.80106V7.02758L21.3067 9.69169C21.8482 9.92009 22.287 10.3432 22.5868 10.8004C22.8877 11.2591 23.099 11.8285 23.099 12.4096V13.8766C23.099 14.5651 22.8327 15.2275 22.2458 15.612C21.6602 15.9957 20.9477 15.9766 20.318 15.7067L20.3159 15.7058L15.1273 13.4655V16.2714C15.1275 16.2739 15.1286 16.2823 15.1319 16.2966C15.1373 16.3203 15.1465 16.3498 15.1595 16.381C15.1726 16.4123 15.1864 16.438 15.1979 16.4558C15.2021 16.4624 15.2053 16.4667 15.207 16.469C15.2114 16.4732 15.2157 16.4774 15.2199 16.4817L17.8 19.0732C17.7998 19.0729 17.8003 19.0734 17.8 19.0732C18.0758 19.3493 18.2373 19.7084 18.3132 20.034C18.3888 20.3579 18.4039 20.7497 18.2783 21.1192L17.7759 22.6381C17.3825 23.7788 16.077 24.3229 14.996 23.7824C14.936 23.7524 14.8797 23.7155 14.8284 23.6723L12.1727 21.4383C12.0941 21.3709 11.9059 21.3709 11.8272 21.4383L11.8212 21.4434L9.17156 23.6723C9.1218 23.7141 9.06742 23.7502 9.00947 23.7797C7.91911 24.3347 6.59634 23.7839 6.22994 22.6214L5.73234 21.1173C5.73225 21.117 5.73244 21.1175 5.73234 21.1173C5.60934 20.7476 5.62121 20.357 5.69838 20.0285C5.77537 19.7007 5.93748 19.3473 6.21071 19.0737C6.21052 19.0739 6.21091 19.0736 6.21071 19.0737L8.7872 16.4859C8.78908 16.4834 8.79306 16.4779 8.79871 16.4687C8.81114 16.4486 8.82567 16.4207 8.83918 16.3876C8.85267 16.3545 8.8622 16.3234 8.86784 16.2985C8.87136 16.283 8.87243 16.274 8.87271 16.2715V13.4655L3.68405 15.7058L3.68193 15.7067C3.05226 15.9766 2.33977 15.9957 1.75416 15.612C1.16727 15.2275 0.901001 14.5651 0.901001 13.8766V12.4096C0.901001 11.8286 1.11221 11.2588 1.41401 10.8005C1.71339 10.3459 2.1529 9.92401 2.69785 9.7011L8.86134 7.03909V3.81243C8.86134 3.08333 9.12297 2.34458 9.49945 1.73237C9.87612 1.11987 10.4172 0.553474 11.0655 0.221626L11.0727 0.217976ZM11.8385 1.74221C11.5328 1.90007 11.2058 2.214 10.9525 2.62592C10.6978 3.04002 10.5671 3.47257 10.5671 3.81243V7.22401C10.5671 7.53317 10.4536 7.80452 10.3248 8.00065C10.1964 8.19607 9.99416 8.40633 9.71493 8.5285L9.71125 8.53011L3.36572 11.2707L3.3465 11.2788C3.19136 11.3413 2.99786 11.4969 2.83864 11.7386C2.67987 11.9797 2.60679 12.2286 2.60679 12.4096V13.8766C2.60679 14.0099 2.63178 14.0912 2.65154 14.1333C2.67011 14.1729 2.68594 14.1832 2.68897 14.1852C2.69213 14.1873 2.70881 14.1981 2.75406 14.1995C2.80184 14.2009 2.88704 14.1914 3.00902 14.1393C3.00869 14.1394 3.00934 14.1391 3.00902 14.1393L8.58734 11.7307C9.00326 11.5466 9.51805 11.5201 9.95789 11.809C10.3979 12.0981 10.5785 12.5816 10.5785 13.035V16.276C10.5785 16.5485 10.5064 16.8166 10.4187 17.0316C10.3316 17.2452 10.1952 17.4899 9.99998 17.6855C9.99962 17.6858 9.99926 17.6862 9.9989 17.6865L7.4188 20.278C7.41885 20.278 7.40941 20.2886 7.3969 20.3128C7.38274 20.3403 7.36882 20.3766 7.35897 20.4186C7.34912 20.4605 7.34527 20.4997 7.34576 20.5317C7.3462 20.5614 7.35018 20.5762 7.35059 20.5778C7.35063 20.5779 7.35063 20.578 7.35059 20.5778L7.3512 20.5797L7.85654 22.1072C7.89724 22.2383 8.03444 22.3174 8.1734 22.2829L10.7206 20.1402C11.437 19.5292 12.563 19.5292 13.2794 20.1402L15.8221 22.2791C15.9565 22.3087 16.1079 22.2369 16.162 22.0855L16.6624 20.5728C16.6629 20.5704 16.6652 20.5586 16.6656 20.5365C16.6661 20.5052 16.6623 20.4652 16.6521 20.4216C16.6419 20.378 16.6275 20.34 16.6129 20.3115C16.6013 20.2888 16.593 20.2787 16.5924 20.2778C16.5923 20.2778 16.5923 20.2778 16.5924 20.2778L14.0189 17.693C13.8151 17.4969 13.6746 17.2519 13.5854 17.0382C13.4938 16.8189 13.4215 16.5491 13.4215 16.276V13.035C13.4215 12.5891 13.5943 12.1031 14.0395 11.8122C14.4801 11.5243 14.9896 11.5569 15.3941 11.7229L15.4085 11.7288L20.99 14.1389C20.9903 14.139 20.9907 14.1392 20.9911 14.1393C21.113 14.1914 21.1981 14.2009 21.2459 14.1995C21.2912 14.1981 21.3078 14.1873 21.311 14.1852C21.314 14.1832 21.3299 14.1729 21.3484 14.1333C21.3682 14.0912 21.3932 14.0099 21.3932 13.8766V12.4096C21.3932 12.2288 21.3202 11.9794 21.1605 11.7359C21.0006 11.4921 20.804 11.3306 20.6426 11.2629L20.6347 11.2596L14.2737 8.51714C13.9944 8.39497 13.7921 8.1847 13.6638 7.98927C13.535 7.79315 13.4215 7.5218 13.4215 7.21263V3.80106C13.4215 3.46181 13.2912 3.0327 13.0372 2.62203C12.7847 2.2137 12.4577 1.90103 12.1501 1.74221C12.0507 1.69365 11.9379 1.69365 11.8385 1.74221Z" fill="#777E91"/>
</svg>
