<svg width="24" height="24" viewbox="0 0 24 24" fill="none" xmlns="http://www.w3.org/2000/svg">
<path fill-rule="evenodd" clip-rule="evenodd" d="M5.84309 4.42912C5.45257 4.0386 4.8194 4.0386 4.42888 4.42912C4.03836 4.81965 4.03836 5.45281 4.42888 5.84334L10.1538 11.5682L4.429 17.293C4.03848 17.6835 4.03848 18.3167 4.429 18.7072C4.81953 19.0978 5.45269 19.0978 5.84322 18.7072L11.568 12.9825L17.2928 18.7072C17.6833 19.0978 18.3165 19.0978 18.707 18.7072C19.0975 18.3167 19.0975 17.6835 18.707 17.293L12.9822 11.5682L18.7071 5.84334C19.0976 5.45281 19.0976 4.81965 18.7071 4.42912C18.3166 4.0386 17.6834 4.0386 17.2929 4.42912L11.568 10.154L5.84309 4.42912Z" fill="#777E91"/>
</svg>
