<svg width="24" height="24" viewbox="0 0 24 24" fill="none" xmlns="http://www.w3.org/2000/svg">
<path fill-rule="evenodd" clip-rule="evenodd" d="M12.764 4.56106C14.8719 2.45325 16.8843 2.50621 18.9392 4.56106C19.9984 5.60968 20.5068 6.62651 20.4962 7.67512C20.4962 8.69196 19.9878 9.6982 18.9392 10.7362L17.6682 12.0179C17.5834 12.1026 17.4775 12.145 17.361 12.145C17.3186 12.145 17.2763 12.1344 17.2339 12.1238C14.427 11.3188 12.1815 9.07327 11.3765 6.26638C11.3341 6.11809 11.3765 5.94862 11.4824 5.8427L12.764 4.56106ZM14.4376 12.6217C14.7236 12.7912 15.0202 12.9395 15.3273 13.0878C15.3833 13.1121 15.4383 13.1357 15.4925 13.1587C15.8305 13.302 15.9285 13.7471 15.669 14.0066L9.57584 20.0997C9.44874 20.2374 9.18394 20.3645 8.99328 20.3963L4.92594 20.9683C4.79884 20.9895 4.67173 21 4.54463 21C3.97266 21 3.44306 20.7988 3.06174 20.4281C2.61688 19.9726 2.41563 19.2947 2.52155 18.5745L3.09352 14.5177C3.12529 14.3377 3.2524 14.0729 3.3901 13.9352L9.49036 7.83489C9.74812 7.57713 10.1831 7.6744 10.3288 8.00851C10.3556 8.06997 10.3835 8.13192 10.4126 8.19428C10.5609 8.49085 10.7092 8.77684 10.8787 9.06282C11.0164 9.29585 11.1646 9.52887 11.2918 9.68775C11.4401 9.91526 11.607 10.115 11.7147 10.244C11.7223 10.2531 11.7296 10.2619 11.7366 10.2703C11.7516 10.2896 11.7657 10.308 11.779 10.3253C11.8313 10.3935 11.8701 10.4441 11.8955 10.461C12.245 10.8847 12.6369 11.266 12.9865 11.5625C13.0712 11.6473 13.1454 11.7108 13.1665 11.7214C13.3678 11.8909 13.5796 12.0604 13.7597 12.1769C13.9821 12.3358 14.2046 12.4841 14.4376 12.6217Z" fill="#777E91"/>
</svg>
